PathFileType	4	(X/Y/Z)	C:/Users/opensim2020/Desktop/walking_exp_matlab/subject03_walking06_straight_01.trc	
DataRate	CameraRate	NumFrames	NumMarkers	Units	OrigDataRate	OrigDataStartFrame	OrigNumFrames	
100.00	100.00	4	44	mm	100.00	624	362	
Frame#	Time	LFHD			RFHD			LBHD			RBHD			C7			T10			CLAV			STRN			RBAK			LSHO			LUPA			LELB			LFRM			LWRA			LWRB			LFIN			RSHO			RUPA			RELB			RFRM			RWRA			RWRB			RFIN			LASI			RASI			LPSI			RPSI			LTHI			LKNE			LTIB			LANK			LHEE			LTOE			RTHI			RKNE			RTIB			RANK			RHEE			RTOE			*39			*40			*41			*42			*43			
		X1	Y1	Z1	X2	Y2	Z2	X3	Y3	Z3	X4	Y4	Z4	X5	Y5	Z5	X6	Y6	Z6	X7	Y7	Z7	X8	Y8	Z8	X9	Y9	Z9	X10	Y10	Z10	X11	Y11	Z11	X12	Y12	Z12	X13	Y13	Z13	X14	Y14	Z14	X15	Y15	Z15	X16	Y16	Z16	X17	Y17	Z17	X18	Y18	Z18	X19	Y19	Z19	X20	Y20	Z20	X21	Y21	Z21	X22	Y22	Z22	X23	Y23	Z23	X24	Y24	Z24	X25	Y25	Z25	X26	Y26	Z26	X27	Y27	Z27	X28	Y28	Z28	X29	Y29	Z29	X30	Y30	Z30	X31	Y31	Z31	X32	Y32	Z32	X33	Y33	Z33	X34	Y34	Z34	X35	Y35	Z35	X36	Y36	Z36	X37	Y37	Z37	X38	Y38	Z38	X39	Y39	Z39	X40	Y40	Z40	X41	Y41	Z41	X42	Y42	Z42	X43	Y43	Z43	X44	Y44	Z44	

182	1.810	1369.95508	-106.63842	1621.06750	1503.51990	-115.54118	1627.61121	1369.33167	-225.66519	1556.20386	1500.47314	-229.96527	1563.37952	1425.34290	-243.95659	1411.88965	1424.74463	-287.29758	1101.86780	1433.63147	-123.95649	1332.63538	1425.50330	-84.80543	1165.85156	1510.49731	-307.69016	1236.39746	1276.19983	-156.67940	1372.99438	1195.90283	-137.76434	1185.00085	1178.59192	-98.93948	1070.45422	1189.98499	-13.00409	976.28552	1232.91968	64.64039	893.98126	1182.70422	46.33877	879.74927	1197.23193	110.19425	829.86218	1590.08508	-184.51897	1354.73889	1655.53833	-211.78946	1131.91199	1667.03198	-209.08444	1018.18329	1667.10620	-209.65640	880.74579	1631.52563	-189.88255	782.54523	1673.97668	-223.99200	781.26813	1662.99524	-210.03003	708.12292	1299.99121	-131.45264	932.05688	1538.92834	-118.79039	933.24884	1361.92236	-291.06909	954.94336	1509.91956	-282.19962	961.16693	1262.98474	-224.89806	636.80420	1292.04260	-256.57632	459.37314	1297.35071	-387.79340	304.61523	1344.03882	-496.06583	124.50887	1381.51538	-547.20728	113.36668	1375.11389	-375.30917	32.93099	1578.00159	-125.30093	643.29504	1538.80200	-63.20791	473.56848	1542.84106	-61.84516	285.60870	1495.68616	-31.22721	72.01326	1442.30957	-71.67020	40.14076	1482.12793	112.15286	38.84978	1415.96436	-200.93033	1669.12976												 
183	1.820	1371.01477	-97.75159	1623.17493	1504.91809	-106.20713	1629.67517	1371.33569	-216.37711	1557.20691	1502.45923	-220.22279	1564.59985	1427.34424	-233.61035	1413.64392	1425.42639	-277.30087	1103.73438	1435.50220	-113.60828	1334.48132	1427.00049	-74.44768	1167.55688	1512.43713	-297.46146	1238.19897	1278.20764	-146.11613	1375.25659	1198.19409	-129.14151	1186.75305	1180.95215	-91.99184	1071.64246	1191.62122	-7.56598	976.14069	1233.79517	69.47483	892.87708	1183.84692	50.11029	878.61304	1197.47803	113.52823	828.18726	1591.84534	-173.79562	1356.42957	1656.90271	-200.68137	1133.45374	1668.20630	-197.87738	1019.82166	1668.39001	-198.87498	882.44873	1632.70068	-179.65704	783.97931	1675.56543	-213.62671	783.00775	1664.38196	-200.12332	709.50055	1301.34680	-120.70684	933.39905	1540.16699	-108.64607	935.93073	1362.28296	-280.39569	956.27740	1510.22729	-272.06339	963.75250	1262.84387	-211.97385	637.24469	1290.17017	-241.93129	459.31897	1296.59399	-376.70203	307.59067	1343.71753	-490.34802	131.53242	1381.91846	-540.51660	122.41379	1375.38684	-374.48148	33.07402	1578.82715	-116.07679	645.55933	1539.61194	-55.69088	475.38708	1543.65967	-58.18864	286.42059	1496.25562	-31.67455	72.23793	1442.56201	-71.75028	40.20248	1482.75732	112.07051	38.61599	1417.66443	-192.21922	1670.32251												 
184	1.830	1372.99219	-88.75762	1624.87158	1506.44360	-96.80930	1631.62683	1373.29968	-207.02899	1558.43396	1504.45227	-210.46463	1565.90955	1429.25488	-223.48984	1415.28052	1426.04797	-267.33331	1105.60193	1437.18164	-103.32742	1336.35095	1428.48608	-64.11745	1169.38757	1514.25928	-286.53308	1239.80249	1280.20154	-135.69786	1377.63049	1200.49976	-120.42856	1188.75488	1183.53284	-85.19292	1073.04431	1193.31592	-2.28231	976.16766	1234.68054	73.34332	891.33453	1184.86511	53.44278	877.49677	1197.73242	116.30416	826.28772	1593.46375	-163.21558	1358.25488	1658.38232	-189.61180	1135.25244	1669.40588	-186.62126	1021.60986	1669.80469	-187.81088	884.31726	1634.04602	-168.70753	785.89490	1677.16870	-202.63683	784.88647	1665.48669	-189.77835	710.81500	1302.90552	-110.13358	934.68054	1541.46582	-98.57905	938.65906	1362.66687	-269.52579	957.99463	1510.55823	-262.01810	966.36261	1262.44165	-198.65881	637.76471	1287.86450	-225.91998	459.35229	1295.46021	-364.49203	310.71042	1343.67639	-482.79611	138.66006	1382.56287	-532.65094	132.55063	1375.56299	-373.97729	32.98527	1580.08386	-106.95838	647.55975	1540.94116	-49.47549	476.73199	1544.71057	-55.72635	286.81293	1496.11377	-31.68831	72.29190	1442.73901	-71.93112	40.19070	1483.23645	111.89366	38.51737	1419.17969	-183.37602	1672.02283												 
185	1.840	1374.58008	-79.81306	1626.63013	1507.93579	-87.32556	1633.39966	1375.30261	-197.76466	1559.68005	1506.37903	-200.70459	1567.23865	1431.11877	-213.61188	1416.68115	1426.80225	-257.23206	1107.30249	1438.72986	-93.21196	1338.12732	1429.79126	-53.80400	1171.19897	1516.28516	-275.90909	1241.48499	1282.19287	-125.55165	1379.96606	1202.80359	-111.65205	1190.79834	1186.15881	-78.37449	1074.56580	1194.94958	2.59515	976.03693	1235.45837	77.12383	889.69006	1185.83118	56.47364	876.28809	1197.99109	118.49625	823.93335	1595.02246	-152.61060	1360.13062	1659.94507	-178.57352	1137.08362	1670.82141	-175.27567	1023.52216	1671.32397	-176.40482	886.26581	1635.58643	-157.75331	787.65961	1678.73608	-191.00082	786.77325	1667.33972	-178.60440	712.72198	1304.53784	-99.71992	936.15680	1542.84839	-88.66049	941.21094	1363.27698	-258.97141	959.88098	1511.08105	-251.92973	968.83289	1261.74133	-184.89015	638.32617	1285.25378	-208.90294	459.30292	1294.23779	-350.98038	313.93329	1343.39734	-473.78198	146.00546	1383.12830	-522.89478	142.78738	1376.00403	-372.92551	33.06096	1581.59143	-98.48770	649.16766	1542.61584	-44.23560	477.56122	1545.54114	-53.99752	286.98260	1496.36621	-32.07158	72.52055	1443.17798	-72.10586	40.22944	1483.43982	111.68466	38.40253	1421.34631	-174.58414	1673.33459												 
